<svg xmlns="http://www.w3.org/2000/svg" viewBox="0 0 64 64" width="64" height="64">
  <rect width="64" height="64" rx="14" fill="#4CAF50"/>
  <path
    d="M7 50V34L11 22L20 12L32 9L44 12L53 22L57 34V50Q57 52 55 52H9Q7 52 7 50Z"
    fill="none"
    stroke="white"
    strokeWidth="3.6"
    strokeLinejoin="round"
  />
  <path
    d="M13 44V32C13 22 20 17 32 17C44 17 51 22 51 32V44Q51 48 47 48H17Q13 48 13 44Z"
    fill="white"
  />
  <rect x="30.2" y="25" width="3.6" height="30" fill="#4CAF50"/>
  <rect x="25" y="30" width="14" height="3.6" fill="#4CAF50"/>
</svg>
