<svg xmlns="http://www.w3.org/2000/svg" viewBox="0 0 64 64" width="64" height="64">
  <rect width="64" height="64" rx="14" fill="#4CAF50"/>
  <path
    d="M11 50V32L14 20L21 11L32 7L43 11L50 20L53 32V50Q53 52 51 52H13Q11 52 11 50Z"
    fill="none"
    stroke="white"
    strokeWidth="3.6"
    strokeLinejoin="round"
  />
  <path
    d="M18 46V32C18 20 24 15 32 15C40 15 46 20 46 32V46Q46 50 42 50H22Q18 50 18 46Z"
    fill="white"
  />
  <rect x="30" y="22" width="4" height="34" fill="#4CAF50"/>
  <rect x="24" y="28" width="16" height="4" fill="#4CAF50"/>
</svg>
