<svg xmlns="http://www.w3.org/2000/svg" viewBox="0 0 64 64" width="64" height="64">
  <rect width="64" height="64" rx="14" fill="#4CAF50"/>
  <path
    d="M11 50V32L14 20L21 11L32 7L43 11L50 20L53 32V50Q53 52 51 52H13Q11 52 11 50Z"
    fill="none"
    stroke="white"
    strokeWidth="3.6"
    strokeLinejoin="round"
  />
  <path
    d="M18 47V34L20 26L24.5 20L32 17L39.5 20L44 26L46 34V47Q46 48.3 44.7 48.3H19.3Q18 48.3 18 47Z"
    fill="white"
  />
  <rect x="29" y="24" width="6" height="21" fill="#4CAF50"/>
  <rect x="22.5" y="29.5" width="19" height="6" fill="#4CAF50"/>
</svg>
